<svg xmlns="http://www.w3.org/2000/svg" width="512" height="512" viewBox="0 0 512 512">
<defs>
 <radialGradient id="bg" cx="50%" cy="40%" r="80%">
  <stop offset="0%" stop-color="#211412"/><stop offset="52%" stop-color="#140c0b"/><stop offset="100%" stop-color="#080505"/>
 </radialGradient>
 <radialGradient id="glow" cx="50%" cy="43%" r="50%">
  <stop offset="0%" stop-color="#ff4a3d" stop-opacity="0.62"/><stop offset="46%" stop-color="#ff3b3b" stop-opacity="0.18"/><stop offset="100%" stop-color="#ff3b3b" stop-opacity="0"/>
 </radialGradient>
 <linearGradient id="play" x1="0.1" y1="0" x2="0.4" y2="1">
  <stop offset="0%" stop-color="#ffc1b2"/><stop offset="42%" stop-color="#ff5945"/><stop offset="100%" stop-color="#cc150e"/>
 </linearGradient>
 <linearGradient id="arcg" x1="0" y1="0" x2="1" y2="0">
  <stop offset="0%" stop-color="#cf1810"/><stop offset="50%" stop-color="#ff8a78"/><stop offset="100%" stop-color="#cf1810"/>
 </linearGradient>
 <filter id="soft" x="-60%" y="-60%" width="220%" height="220%"><feGaussianBlur stdDeviation="11"/></filter>
 <filter id="dot" x="-150%" y="-150%" width="400%" height="400%"><feGaussianBlur stdDeviation="4"/></filter>
 <filter id="grain"><feTurbulence type="fractalNoise" baseFrequency="0.9" numOctaves="2" stitchTiles="stitch"/><feColorMatrix type="saturate" values="0"/></filter>
</defs>
<rect width="512" height="512" fill="url(#bg)"/>
<rect width="512" height="512" fill="url(#glow)"/>
<circle cx="256" cy="256" r="206" fill="none" stroke="#e8877e" stroke-opacity="0.07" stroke-width="1"/>
<circle cx="256" cy="256" r="198" fill="none" stroke="#ec938a" stroke-opacity="0.30" stroke-width="2"/>
<circle cx="256" cy="256" r="150" fill="none" stroke="#e8877e" stroke-opacity="0.10" stroke-width="1.5"/>
<g><line x1="426.0" y1="256.0" x2="450.0" y2="256.0" stroke="#e8877e" stroke-opacity="0.62" stroke-width="3.2" stroke-linecap="round"/><line x1="430.8" y1="302.8" x2="442.4" y2="306.0" stroke="#e8877e" stroke-opacity="0.4" stroke-width="2" stroke-linecap="round"/><line x1="412.8" y1="346.5" x2="423.1" y2="352.5" stroke="#e8877e" stroke-opacity="0.4" stroke-width="2" stroke-linecap="round"/><line x1="384.0" y1="384.0" x2="392.5" y2="392.5" stroke="#e8877e" stroke-opacity="0.4" stroke-width="2" stroke-linecap="round"/><line x1="346.5" y1="412.8" x2="352.5" y2="423.1" stroke="#e8877e" stroke-opacity="0.4" stroke-width="2" stroke-linecap="round"/><line x1="302.8" y1="430.8" x2="306.0" y2="442.4" stroke="#e8877e" stroke-opacity="0.4" stroke-width="2" stroke-linecap="round"/><line x1="256.0" y1="426.0" x2="256.0" y2="450.0" stroke="#e8877e" stroke-opacity="0.62" stroke-width="3.2" stroke-linecap="round"/><line x1="209.2" y1="430.8" x2="206.0" y2="442.4" stroke="#e8877e" stroke-opacity="0.4" stroke-width="2" stroke-linecap="round"/><line x1="165.5" y1="412.8" x2="159.5" y2="423.1" stroke="#e8877e" stroke-opacity="0.4" stroke-width="2" stroke-linecap="round"/><line x1="128.0" y1="384.0" x2="119.5" y2="392.5" stroke="#e8877e" stroke-opacity="0.4" stroke-width="2" stroke-linecap="round"/><line x1="99.2" y1="346.5" x2="88.9" y2="352.5" stroke="#e8877e" stroke-opacity="0.4" stroke-width="2" stroke-linecap="round"/><line x1="81.2" y1="302.8" x2="69.6" y2="306.0" stroke="#e8877e" stroke-opacity="0.4" stroke-width="2" stroke-linecap="round"/><line x1="86.0" y1="256.0" x2="62.0" y2="256.0" stroke="#e8877e" stroke-opacity="0.62" stroke-width="3.2" stroke-linecap="round"/><line x1="81.2" y1="209.2" x2="69.6" y2="206.0" stroke="#e8877e" stroke-opacity="0.4" stroke-width="2" stroke-linecap="round"/><line x1="99.2" y1="165.5" x2="88.9" y2="159.5" stroke="#e8877e" stroke-opacity="0.4" stroke-width="2" stroke-linecap="round"/><line x1="128.0" y1="128.0" x2="119.5" y2="119.5" stroke="#e8877e" stroke-opacity="0.4" stroke-width="2" stroke-linecap="round"/><line x1="165.5" y1="99.2" x2="159.5" y2="88.9" stroke="#e8877e" stroke-opacity="0.4" stroke-width="2" stroke-linecap="round"/><line x1="209.2" y1="81.2" x2="206.0" y2="69.6" stroke="#e8877e" stroke-opacity="0.4" stroke-width="2" stroke-linecap="round"/><line x1="256.0" y1="86.0" x2="256.0" y2="62.0" stroke="#e8877e" stroke-opacity="0.62" stroke-width="3.2" stroke-linecap="round"/><line x1="302.8" y1="81.2" x2="306.0" y2="69.6" stroke="#e8877e" stroke-opacity="0.4" stroke-width="2" stroke-linecap="round"/><line x1="346.5" y1="99.2" x2="352.5" y2="88.9" stroke="#e8877e" stroke-opacity="0.4" stroke-width="2" stroke-linecap="round"/><line x1="384.0" y1="128.0" x2="392.5" y2="119.5" stroke="#e8877e" stroke-opacity="0.4" stroke-width="2" stroke-linecap="round"/><line x1="412.8" y1="165.5" x2="423.1" y2="159.5" stroke="#e8877e" stroke-opacity="0.4" stroke-width="2" stroke-linecap="round"/><line x1="430.8" y1="209.2" x2="442.4" y2="206.0" stroke="#e8877e" stroke-opacity="0.4" stroke-width="2" stroke-linecap="round"/></g>
<path d="M 72.4 181.8 A 198 198 0 0 1 439.6 181.8" fill="none" stroke="url(#arcg)" stroke-width="8" stroke-linecap="round" filter="url(#soft)" opacity="0.9"/>
<path d="M 72.4 181.8 A 198 198 0 0 1 439.6 181.8" fill="none" stroke="url(#arcg)" stroke-width="3.6" stroke-linecap="round"/>
<circle cx="256.0" cy="58.0" r="13" fill="#ff4338" opacity="0.55" filter="url(#dot)"/>
<circle cx="256.0" cy="58.0" r="5.5" fill="#ffe2da"/>
<polygon points="216,182 216,330 342,256" fill="#ff3b3b" opacity="0.6" filter="url(#soft)"/>
<polygon points="216,182 216,330 342,256" fill="url(#play)" stroke="url(#play)" stroke-width="17" stroke-linejoin="round"/>
<polygon points="216,182 216,330 342,256" fill="none" stroke="#fff0ec" stroke-opacity="0.28" stroke-width="2" stroke-linejoin="round"/>
<rect width="512" height="512" filter="url(#grain)" opacity="0.04"/>
</svg>