<svg xmlns="http://www.w3.org/2000/svg" width="512" height="512" viewBox="0 0 512 512">
<defs>
 <radialGradient id="panel" cx="18%" cy="34%" r="115%">
  <stop offset="0%" stop-color="#1c1310"/><stop offset="55%" stop-color="#130d0b"/><stop offset="100%" stop-color="#0a0707"/>
 </radialGradient>
 <radialGradient id="bg" cx="50%" cy="40%" r="80%">
  <stop offset="0%" stop-color="#211412"/><stop offset="52%" stop-color="#140c0b"/><stop offset="100%" stop-color="#080505"/>
 </radialGradient>
 <radialGradient id="glow" cx="50%" cy="43%" r="50%">
  <stop offset="0%" stop-color="#ff4a3d" stop-opacity="0.6"/><stop offset="46%" stop-color="#ff3b3b" stop-opacity="0.18"/><stop offset="100%" stop-color="#ff3b3b" stop-opacity="0"/>
 </radialGradient>
 <radialGradient id="iconglow" cx="50%" cy="50%" r="50%">
  <stop offset="0%" stop-color="#ff4a3d" stop-opacity="0.5"/><stop offset="55%" stop-color="#ff3b3b" stop-opacity="0.12"/><stop offset="100%" stop-color="#ff3b3b" stop-opacity="0"/>
 </radialGradient>
 <radialGradient id="face" cx="50%" cy="34%" r="80%">
  <stop offset="0%" stop-color="#251a18"/><stop offset="60%" stop-color="#140d0c"/><stop offset="100%" stop-color="#0a0606"/>
 </radialGradient>
 <linearGradient id="bar" x1="0" y1="1" x2="0" y2="0">
  <stop offset="0%" stop-color="#ff7a00"/><stop offset="55%" stop-color="#ff2a00"/><stop offset="100%" stop-color="#ff0000"/>
 </linearGradient>
 <radialGradient id="badge" cx="42%" cy="34%" r="80%">
  <stop offset="0%" stop-color="#ff6a4a"/><stop offset="46%" stop-color="#ff2a12"/><stop offset="100%" stop-color="#c8130a"/>
 </radialGradient>
 <filter id="soft" x="-60%" y="-60%" width="220%" height="220%"><feGaussianBlur stdDeviation="11"/></filter>
 <filter id="barglow" x="-80%" y="-80%" width="260%" height="260%"><feGaussianBlur stdDeviation="9" result="b"/><feMerge><feMergeNode in="b"/><feMergeNode in="SourceGraphic"/></feMerge></filter>
 <filter id="grain"><feTurbulence type="fractalNoise" baseFrequency="0.9" numOctaves="2" stitchTiles="stitch"/><feColorMatrix type="saturate" values="0"/></filter></defs>
<rect width="512" height="512" fill="url(#bg)"/>
<rect width="512" height="512" fill="url(#glow)"/>
<circle cx="256" cy="256" r="208" fill="url(#face)"/>

 <circle cx="256" cy="256" r="170" fill="url(#iconglow)"/>
 <circle cx="256" cy="256" r="208" fill="url(#face)"/>
 <circle cx="256" cy="256" r="198" fill="none" stroke="#ec938a" stroke-opacity="0.32" stroke-width="2.8"/>
 <circle cx="256" cy="256" r="206" fill="none" stroke="#e8877e" stroke-opacity="0.08" stroke-width="1.8"/><circle cx="256" cy="256" r="150" fill="none" stroke="#e8877e" stroke-opacity="0.10" stroke-width="2"/>
 <ellipse cx="256" cy="258" rx="140" ry="120" fill="#ff3b1f" opacity="0.16" filter="url(#soft)"/>
 <g filter="url(#barglow)">
  <rect x="138" y="240" width="34" height="110" rx="13" fill="url(#bar)"/>
  <rect x="190" y="190" width="34" height="160" rx="13" fill="url(#bar)"/>
  <rect x="242" y="146" width="34" height="204" rx="13" fill="url(#bar)"/>
  <rect x="294" y="206" width="34" height="144" rx="13" fill="url(#bar)"/>
  <rect x="346" y="262" width="34" height="88"  rx="13" fill="url(#bar)"/>
 </g>
 <g opacity="0.9">
  <rect x="138" y="240" width="34" height="13" rx="6.5" fill="#ffd9b0"/>
  <rect x="190" y="190" width="34" height="13" rx="6.5" fill="#ffd9b0"/>
  <rect x="242" y="146" width="34" height="13" rx="6.5" fill="#ffe7cc"/>
  <rect x="294" y="206" width="34" height="13" rx="6.5" fill="#ffd9b0"/>
  <rect x="346" y="262" width="34" height="13" rx="6.5" fill="#ffd9b0"/>
 </g>
 <rect x="128" y="350" width="256" height="5" rx="2.5" fill="#e8877e" opacity="0.34"/>

 <circle cx="372" cy="366" r="80" fill="#0a0606"/>
 <circle cx="372" cy="366" r="67" fill="url(#badge)"/>
 <circle cx="372" cy="366" r="67" fill="none" stroke="#ffd9b0" stroke-opacity="0.40" stroke-width="2.4"/>
 <text x="372" y="401" font-family="Fraunces, Georgia, 'Times New Roman', serif" font-weight="700" font-size="99" fill="#fff3e6" text-anchor="middle">2</text>
<rect width="512" height="512" filter="url(#grain)" opacity="0.04"/>
</svg>
